Coordinates
version=1
nRows=4
nColumns=124
inDegrees=yes

Units are S.I. units (second, meters, Newtons, ...)
If the header above contains a line with 'inDegrees', this indicates whether rotational values are in degrees (yes) or radians (no).

endheader 
time	pelvis_tilt	pelvis_list	pelvis_rotation	pelvis_tx	pelvis_ty	pelvis_tz	hip_flexion_l	hip_adduction_l	hip_rotation_l	hip_flexion_r	hip_adduction_r	hip_rotation_r	knee_angle_l	knee_angle_r	ankle_angle_l	ankle_angle_r	subtalar_angle_l	subtalar_angle_r	mtp_angle_l	mtp_angle_r	lumbar_extension	lumbar_bending	lumbar_rotation	arm_flex_l	arm_add_l	arm_rot_l	arm_flex_r	arm_add_r	arm_rot_r	elbow_flex_l	elbow_flex_r	glut_med1_l/activation	glut_med2_l/activation	glut_med3_l/activation	glut_min1_l/activation	glut_min2_l/activation	glut_min3_l/activation	semimem_l/activation	semiten_l/activation	bifemlh_l/activation	bifemsh_l/activation	sar_l/activation	add_long_l/activation	add_brev_l/activation	add_mag1_l/activation	add_mag2_l/activation	add_mag3_l/activation	tfl_l/activation	pect_l/activation	grac_l/activation	glut_max1_l/activation	glut_max2_l/activation	glut_max3_l/activation	iliacus_l/activation	psoas_l/activation	quad_fem_l/activation	gem_l/activation	peri_l/activation	rect_fem_l/activation	vas_med_l/activation	vas_int_l/activation	vas_lat_l/activation	med_gas_l/activation	lat_gas_l/activation	soleus_l/activation	tib_post_l/activation	flex_dig_l/activation	flex_hal_l/activation	tib_ant_l/activation	per_brev_l/activation	per_long_l/activation	per_tert_l/activation	ext_dig_l/activation	ext_hal_l/activation	ercspn_l/activation	intobl_l/activation	extobl_l/activation	glut_med1_r/activation	glut_med2_r/activation	glut_med3_r/activation	glut_min1_r/activation	glut_min2_r/activation	glut_min3_r/activation	semimem_r/activation	semiten_r/activation	bifemlh_r/activation	bifemsh_r/activation	sar_r/activation	add_long_r/activation	add_brev_r/activation	add_mag1_r/activation	add_mag2_r/activation	add_mag3_r/activation	tfl_r/activation	pect_r/activation	grac_r/activation	glut_max1_r/activation	glut_max2_r/activation	glut_max3_r/activation	iliacus_r/activation	psoas_r/activation	quad_fem_r/activation	gem_r/activation	peri_r/activation	rect_fem_r/activation	vas_med_r/activation	vas_int_r/activation	vas_lat_r/activation	med_gas_r/activation	lat_gas_r/activation	soleus_r/activation	tib_post_r/activation	flex_dig_r/activation	flex_hal_r/activation	tib_ant_r/activation	per_brev_r/activation	per_long_r/activation	per_tert_r/activation	ext_dig_r/activation	ext_hal_r/activation	ercspn_r/activation	intobl_r/activation	extobl_r/activation	
          1.12167529	         -3.28699063	        -13.16928786	        -10.25756772	          0.77518932	          1.03216363	          0.00773984	         14.29423254	        -14.62390532	         -4.63734857	        -21.60469727	          9.46244614	        -13.40380140	        -19.47358067	        -14.79946150	         14.34248517	        -31.91150415	         -6.34640171	         -5.12884944	          0.96969995	          3.74751164	         -3.21160727	          4.14819540	          6.54760891	        -27.54725279	        -13.99693030	          4.87001160	         23.16627967	        -13.47346761	         14.18032812	          6.75045108	        110.40587685	          0.78556377	          0.93086467	          0.76298125	          0.64305428	          0.68570929	          0.59438358	          0.34130308	          0.31995931	          0.39941767	          0.05028704	          0.41945832	          0.05000885	          0.05038275	          0.35848547	          0.41052017	          0.52492424	          0.59858029	          0.21484247	          0.07801283	          0.61917510	          0.71382722	          0.59488899	          0.05012861	          0.05015021	          0.27443015	          0.61287647	          0.63189039	          0.59651239	          0.67533734	          0.75401170	          0.10876210	          0.05059724	          0.26770879	          0.38191139	          0.74143343	          0.62811291	          0.63160582	          0.56911756	          0.09338179	          0.05061215	          0.45583561	          0.38887563	          0.55127020	          0.05014990	          0.05000316	          0.05000775	          0.48374483	          0.27473587	          0.39252691	          0.55592369	          0.50418000	          0.48783543	          0.45505322	          0.43519893	          0.41144797	          0.43724548	          0.49008566	          0.58365847	          0.56198070	          0.52695381	          0.52867236	          0.50806178	          0.51766183	          0.54936576	          0.48317173	          0.51297727	          0.49618665	          0.48259640	          0.50384878	          0.48575866	          0.23364122	          0.36126350	          0.30617093	          0.35348032	          0.20911389	          0.22107171	          0.17538757	          0.35495586	          0.47104471	          0.07071378	          0.26850586	          0.46027418	          0.41967190	          0.55267314	          0.19427860	          0.14572925	          0.51622072	          0.79426914	          0.66283153	          0.22835341	          0.27986584	          0.10749289	
          1.15199084	         -2.83125745	        -14.47416003	         -8.81663661	          0.79387420	          1.03594794	          0.00732142	         12.39155120	        -15.89832004	         -4.85800655	        -22.45339429	         11.46376768	        -13.84591822	        -18.50905809	        -13.38452160	         15.23899632	        -26.32409410	         -4.58365522	         -2.69509710	          0.97627110	          2.16520059	         -3.74769906	          4.61913268	          7.26662324	        -28.00802119	        -14.52433294	          3.25965931	         24.64860670	        -13.46785177	         11.02382758	          4.54709588	        110.07526105	          0.75590055	          0.91821478	          0.74731284	          0.64986441	          0.68434386	          0.58408612	          0.29904821	          0.28705366	          0.36200027	          0.05048936	          0.42606094	          0.05000645	          0.05037331	          0.35606664	          0.40927071	          0.52326935	          0.60968275	          0.20092144	          0.05213200	          0.60022575	          0.69129724	          0.58747455	          0.05012611	          0.05014383	          0.20149079	          0.59221910	          0.60181087	          0.63794738	          0.65296204	          0.72882437	          0.10968468	          0.10534136	          0.33161201	          0.42187062	          0.73539978	          0.62429937	          0.63785685	          0.54970565	          0.08241970	          0.05078069	          0.43593071	          0.32226475	          0.52221853	          0.05016792	          0.05000955	          0.05001080	          0.51492629	          0.18257695	          0.35183473	          0.57025240	          0.48808475	          0.48233115	          0.46316234	          0.42875023	          0.39663177	          0.47969718	          0.48434867	          0.54181183	          0.55749712	          0.52336537	          0.52651931	          0.50784855	          0.49394033	          0.54995248	          0.47847869	          0.51288730	          0.49590360	          0.48555821	          0.51229720	          0.48903544	          0.16440714	          0.31664510	          0.24853413	          0.34075255	          0.22302390	          0.23685284	          0.18272705	          0.24551765	          0.43032496	          0.05543420	          0.18512174	          0.40535496	          0.34358292	          0.61414366	          0.12912505	          0.09681737	          0.63834493	          0.74317951	          0.72474693	          0.22048837	          0.29787910	          0.10436399	
          1.18230639	         -2.27634308	        -15.65599672	         -7.39062583	          0.81171200	          1.03954751	          0.00667367	         10.45123446	        -17.05725723	         -5.04045563	        -22.80925265	         13.53832316	        -14.15238729	        -17.44450838	        -11.72909525	         15.73567578	        -20.35275991	         -3.16174943	         -0.83056846	          1.03298375	          1.33407355	         -4.33253065	          5.15245740	          7.93205472	        -27.86550306	        -15.13395766	          2.07019944	         25.50944102	        -13.46409793	          7.60469456	          2.72047343	        108.34060404	          0.71847599	          0.89824146	          0.72961745	          0.65271814	          0.68081839	          0.57362541	          0.26977480	          0.27414525	          0.33740294	          0.05043525	          0.42787020	          0.05000829	          0.05039515	          0.36249680	          0.41523690	          0.52991247	          0.60830788	          0.20334110	          0.05024270	          0.58184480	          0.66679742	          0.58483033	          0.05015796	          0.05017599	          0.15995438	          0.56591681	          0.57441400	          0.66308394	          0.62754021	          0.69808372	          0.11017961	          0.20197992	          0.39320691	          0.45626343	          0.72907273	          0.61965092	          0.64200623	          0.52639239	          0.10558403	          0.05066333	          0.41497079	          0.25333096	          0.48840434	          0.05013425	          0.05000392	          0.05000522	          0.50401248	          0.12131780	          0.32737146	          0.54984709	          0.45081804	          0.46873902	          0.45934540	          0.42659701	          0.38019972	          0.41583186	          0.46882171	          0.49937222	          0.60764788	          0.52406162	          0.52691771	          0.51084803	          0.47101281	          0.56609505	          0.47768727	          0.51293344	          0.49834705	          0.49468134	          0.51750833	          0.50586362	          0.14415695	          0.33376520	          0.22300002	          0.35105023	          0.22295127	          0.23320325	          0.18617401	          0.16324304	          0.37912041	          0.05000043	          0.13265436	          0.40377579	          0.29775069	          0.69680911	          0.08578702	          0.06432055	          0.73316516	          0.71803251	          0.81190644	          0.20988155	          0.30656416	          0.10383114	
          1.21262194	         -1.64194922	        -16.67553737	         -6.00778590	          0.82874697	          1.04280574	          0.00582970	          8.48850116	        -18.05219055	         -5.18061755	        -22.58818929	         15.55813004	        -14.31716635	        -16.31335395	         -9.93934958	         15.87180024	        -15.22884779	         -2.17075355	          0.43642543	          1.17316477	          0.84552145	         -4.95558808	          5.70015685	          8.53138050	        -27.20665101	        -15.76550647	          1.22270669	         25.81377149	        -13.46508565	          4.15045198	          1.43322942	        105.23832709	          0.67825707	          0.87819653	          0.71624103	          0.65494142	          0.67661828	          0.56215041	          0.24867047	          0.26577253	          0.32098814	          0.05041476	          0.42084794	          0.05000851	          0.05045773	          0.37213745	          0.42284464	          0.53301622	          0.60978278	          0.21124072	          0.05128006	          0.56609619	          0.64319532	          0.58252966	          0.05018419	          0.05019834	          0.13285158	          0.54915491	          0.55145141	          0.68703312	          0.60187270	          0.66860686	          0.11095306	          0.30627500	          0.45082906	          0.49093406	          0.72713622	          0.61688038	          0.64666834	          0.50182290	          0.12354533	          0.06366461	          0.38930246	          0.18378334	          0.45216858	          0.05008183	          0.05000874	          0.05001948	          0.45278633	          0.08062586	          0.31089928	          0.52398216	          0.41678679	          0.45281096	          0.45334264	          0.41196346	          0.36847381	          0.34120893	          0.45032551	          0.47147127	          0.62091378	          0.52522697	          0.52907442	          0.51391634	          0.46116877	          0.56881377	          0.46880372	          0.51349185	          0.50495728	          0.50656911	          0.52386062	          0.55222168	          0.15868876	          0.34976018	          0.21804404	          0.35300582	          0.23997788	          0.25649973	          0.20887472	          0.10856065	          0.32623574	          0.05000072	          0.09691422	          0.41165353	          0.26882465	          0.84515614	          0.05703235	          0.05000563	          0.75715707	          0.72688557	          0.87790865	          0.20209477	          0.31482633	          0.11361339	
